<svg width="10" height="10" viewBox="0 0 10 10" fill="none" xmlns="http://www.w3.org/2000/svg">
<path d="M6.77797 2.7919C6.81282 2.7571 6.85418 2.7295 6.89969 2.71069C6.9452 2.69187 6.99397 2.68221 7.04321 2.68224C7.09246 2.68227 7.14121 2.69201 7.1867 2.71088C7.23218 2.72976 7.27351 2.75741 7.3083 2.79225C7.3431 2.8271 7.3707 2.86846 7.38951 2.91396C7.40833 2.95947 7.41799 3.00824 7.41796 3.05749C7.41793 3.10674 7.4082 3.15549 7.38932 3.20098C7.37045 3.24646 7.3428 3.28778 7.30795 3.32258L6.77797 2.7919ZM6.64327 3.45658L6.37811 3.19141L6.37828 3.19124L6.64327 3.45658ZM5.13413 5.49605C5.0638 5.56638 4.96842 5.60589 4.86896 5.60589C4.76951 5.60589 4.67412 5.56638 4.6038 5.49605C4.53347 5.42573 4.49396 5.33034 4.49396 5.23089C4.49396 5.13143 4.53347 5.03605 4.6038 4.96572L5.13413 5.49605ZM4.60053 4.96899C4.67085 4.89867 4.76624 4.85916 4.86569 4.85916C4.96515 4.85916 5.06053 4.89867 5.13086 4.96899C5.20118 5.03932 5.24069 5.1347 5.24069 5.23416C5.24069 5.33361 5.20118 5.429 5.13086 5.49932L4.60053 4.96899ZM3.21575 7.41443C3.14542 7.48476 3.05004 7.52427 2.95058 7.52427C2.85112 7.52427 2.75574 7.48476 2.68542 7.41443C2.61509 7.34411 2.57558 7.24872 2.57558 7.14927C2.57558 7.04981 2.61509 6.95443 2.68542 6.8841L3.21575 7.41443ZM7.30795 3.32258L7.30132 3.32921L6.77126 2.79862L6.77797 2.7919L7.30795 3.32258ZM7.30132 3.32921L7.22266 3.40788L6.69277 2.8771L6.77126 2.79862L7.30132 3.32921ZM7.22266 3.40788L7.14417 3.48637L6.61419 2.95568L6.69277 2.8771L7.22266 3.40788ZM7.14417 3.48637L7.06541 3.56494L6.53552 3.03417L6.61419 2.95568L7.14417 3.48637ZM7.06541 3.56494L6.98684 3.64334L6.45686 3.11266L6.53552 3.03417L7.06541 3.56494ZM6.98684 3.64334L6.90826 3.72192L6.37828 3.19124L6.45686 3.11266L6.98684 3.64334ZM6.90844 3.72174L5.13413 5.49605L4.6038 4.96572L6.37811 3.19141L6.90844 3.72174ZM5.13086 5.49932L3.21575 7.41443L2.68542 6.8841L4.60053 4.96899L5.13086 5.49932Z" fill="#3F75FF"/>
<path d="M2.95388 2.75276L6.69739 2.75285C6.78357 2.75284 6.86892 2.76982 6.94854 2.8028C7.02817 2.83578 7.10052 2.88412 7.16146 2.94506C7.2224 3.006 7.27074 3.07835 7.30372 3.15798C7.3367 3.2376 7.35368 3.32295 7.35367 3.40913L7.35358 7.15264" stroke="#3F75FF" stroke-width="0.75" stroke-linecap="round" stroke-linejoin="round"/>
</svg>
