<svg width="32" height="32" viewBox="0 0 32 32" fill="none" xmlns="http://www.w3.org/2000/svg">
<rect width="32" height="32" fill="black"/>
<g clip-path="url(#clip0_17330_22276)">
<path d="M28.0001 16.7773L25.0962 24.2561H21.5865L20.3037 19.574L21.0939 16.7773H21.4406L23.1445 22.3706H23.5711L25.5888 16.7773H28.0001Z" fill="white"/>
<path d="M21.2871 13.7336C21.3269 13.7391 21.3526 13.7784 21.3416 13.8171L18.4055 24.2068C18.3978 24.2357 18.3716 24.2559 18.3416 24.2559H14.86L12.6975 18.5104C12.6975 18.5104 9.97769 18.3795 8.3627 18.3795C6.43387 18.3795 6.27703 18.4237 6.27703 18.9729C6.27703 19.254 6.37833 19.3994 6.61383 19.4567C6.81482 19.5123 7.43272 19.545 9.01335 19.5908C11.4816 19.6693 11.9638 19.7248 12.4459 20.0273C12.9609 20.3639 13.1521 20.8691 13.1521 21.9119C13.1521 23.2131 12.8383 23.8522 12.0635 24.1431C11.6156 24.3115 10.6741 24.3686 8.44136 24.3686C6.20864 24.3686 5.21156 24.2673 4.68516 23.9305C4.1684 23.6054 4 23.1673 4 22.1359V21.7779H6.20993C6.20993 22.2258 6.25407 22.3712 6.43387 22.4841C6.64803 22.6181 6.89316 22.6409 8.49835 22.6409C10.1275 22.6409 10.942 22.4202 10.942 21.9789C10.942 21.531 10.7738 21.4183 10.0446 21.4067L8.25145 21.3398L7.04021 21.2842L6.43387 21.2613C4.58355 21.2057 4.06855 20.7349 4.06855 19.0857C4.06855 17.6621 4.57183 16.9233 5.60326 16.6995C6.2125 16.5672 9.63767 16.6679 11.1708 16.6634C12.7609 16.6586 13.8 16.5501 14.437 17.2969C14.6083 17.4977 14.7014 17.7051 14.7541 17.8543C14.8161 18.026 14.8812 18.2071 14.9429 18.3789L14.9448 18.3842L16.3596 22.3276C16.3691 22.3539 16.394 22.3714 16.4217 22.3714H16.7014C16.7267 22.3714 16.75 22.3568 16.7609 22.3338L20.8902 13.7255C20.9026 13.6996 20.9304 13.6847 20.9588 13.6885L21.2869 13.7336H21.2871Z" fill="white"/>
<path d="M25.9521 14.1596L24.5134 13.5224L23.0639 12.8234C23.0251 12.8925 22.9819 12.9584 22.9352 13.021L25.271 15.1857C25.5389 14.8739 25.7673 14.5299 25.952 14.1596H25.9521Z" fill="#14A800"/>
<path d="M22.967 10.8859L25.7448 9.32891C25.5361 8.98681 25.2877 8.67216 25.0037 8.39026L22.8453 10.7318C22.8887 10.7811 22.9295 10.8325 22.967 10.8861V10.8859Z" fill="#14A800"/>
<path d="M23.2992 11.9563L26.4624 12.3252C26.494 11.9273 26.4774 11.5269 26.4127 11.1309L23.2909 11.7592C23.2973 11.8249 23.3002 11.8907 23.2992 11.9563Z" fill="#14A800"/>
<path d="M23.4025 7.32396C23.0327 7.16953 22.6469 7.06116 22.2528 7L21.881 10.1629C21.9454 10.1773 22.0091 10.1953 22.0717 10.2168L23.4025 7.3238V7.32396Z" fill="#14A800"/>
<path d="M20.006 12.9734L17.2263 14.527C17.4345 14.8695 17.6824 15.1843 17.9654 15.4665L20.1282 13.1288C20.0846 13.0792 20.0439 13.0275 20.0061 12.9734H20.006Z" fill="#14A800"/>
<path d="M20.9544 10.2005L20.3294 7.07806C19.9411 7.17085 19.5664 7.30923 19.2108 7.49144L20.7666 10.27C20.8279 10.2433 20.8907 10.2202 20.9545 10.2005H20.9544Z" fill="#14A800"/>
<path d="M19.8865 11.0847C19.9305 11.0009 19.9814 10.92 20.0387 10.8436L17.6981 8.68408C17.4318 8.99536 17.2048 9.33842 17.0211 9.70733L18.5403 10.3686L19.8865 11.0847Z" fill="#14A800"/>
<path d="M19.6758 11.9037L16.5133 11.5282C16.481 11.9271 16.4969 12.3277 16.561 12.7235L19.6839 12.0999C19.6776 12.0347 19.6749 11.9692 19.6758 11.9037Z" fill="#14A800"/>
<path d="M23.7569 16.3751L22.206 13.5938C22.1445 13.6203 22.0818 13.6434 22.0177 13.663L22.6382 16.7864C23.0268 16.6942 23.4017 16.5563 23.7568 16.3751H23.7569Z" fill="#14A800"/>
</g>
<defs>
<clipPath id="clip0_17330_22276">
<rect width="24" height="17.3686" fill="white" transform="translate(4 7)"/>
</clipPath>
</defs>
</svg>
