<svg width="30" height="30" viewBox="0 0 30 30" fill="none" xmlns="http://www.w3.org/2000/svg">
<path d="M26.7286 5.68644C26.1751 5.00292 25.5492 4.37583 24.889 3.78665C24.3839 3.32187 23.8203 2.92045 23.2523 2.53013C22.4897 2.0131 21.6721 1.57145 20.8148 1.21581C18.9743 0.422685 16.958 -0.00232081 14.9382 0.000922669C13.5242 -0.013875 12.1052 0.148911 10.7438 0.518887C8.31937 1.17743 6.10164 2.46539 4.3036 4.14876C3.25269 5.1389 2.35246 6.27471 1.62079 7.49977C0.89732 8.75812 0.314399 10.0993 0 11.5075C1.6971 11.4996 3.3942 11.5047 5.09082 11.5014C5.17292 11.4996 5.28931 11.5065 5.31298 11.4085C6.01036 9.58315 7.26991 7.94233 8.93078 6.81623C9.75325 6.23445 10.6786 5.7877 11.6498 5.48156C12.3984 5.23552 13.1769 5.07598 13.967 5.02234C16.0959 4.84707 18.2677 5.37427 20.0846 6.44256C21.5736 7.32586 22.8331 8.57497 23.6483 10.0641C23.9149 10.5113 24.0965 10.9983 24.3109 11.4681C24.5601 11.5301 24.8258 11.4885 25.0822 11.5028C26.5857 11.4968 28.0901 11.5149 29.5935 11.4913C29.0931 9.38799 28.1118 7.3897 26.7286 5.68644ZM6.05624 6.95914C5.72107 6.89486 5.44047 6.67564 5.24343 6.41621C5.00726 6.11144 4.96718 5.69661 5.07682 5.33867C5.25454 4.82209 5.74232 4.42068 6.3011 4.32541C6.34746 4.49699 6.38175 4.67226 6.39046 4.84984C6.03452 4.90349 5.68873 5.13842 5.59166 5.48203C5.48395 5.91721 5.82299 6.40048 6.29097 6.45274C6.74156 6.51563 7.14097 6.09248 7.10475 5.67256C7.26799 5.70263 7.43122 5.73454 7.59156 5.77662C7.59831 6.50176 6.79806 7.1321 6.05624 6.95914ZM8.26479 5.69015C8.02283 5.34515 7.83786 4.96685 7.5959 4.62093C7.38823 4.27686 7.17959 3.93279 6.9753 3.5864C7.44329 3.30523 7.91127 3.0222 8.39085 2.75814C8.4826 2.89271 8.57485 3.02775 8.63861 3.17712C8.32565 3.3635 8.01221 3.54894 7.69975 3.73624C7.78861 3.86388 7.87747 3.99198 7.95909 4.1247C8.22761 3.9707 8.5 3.82271 8.75935 3.65346C8.85787 3.78387 8.94915 3.91891 9.02835 4.06042C8.76224 4.22968 8.48648 4.38508 8.21071 4.53907C8.30488 4.68058 8.40871 4.81609 8.49275 4.96362C8.81004 4.79065 9.11431 4.59734 9.42823 4.41976C9.51661 4.55757 9.60306 4.69678 9.67695 4.84291C9.20076 5.11715 8.7207 5.38631 8.26479 5.69015ZM11.559 4.12378C11.3079 3.91336 11.0693 3.68953 10.8143 3.48374C10.7051 3.47958 10.6061 3.54062 10.5038 3.56883C10.581 3.84955 10.68 4.12471 10.7747 4.40034C10.609 4.45723 10.4429 4.51365 10.2768 4.56822C10.0343 3.94343 9.8426 3.30153 9.5987 2.67721C9.54364 2.53477 9.49438 2.39049 9.44657 2.2462C9.79478 2.12365 10.1478 2.01543 10.5013 1.90861C10.6863 1.84987 10.8911 1.84387 11.0741 1.91323C11.4479 2.0344 11.6865 2.45941 11.5653 2.82244C11.5184 2.9769 11.4001 3.09529 11.3002 3.21969C11.602 3.43844 11.8502 3.71453 12.1313 3.95547C11.9497 4.0373 11.7517 4.0743 11.559 4.12378ZM13.4348 1.81193C13.5131 2.45152 13.5976 3.09064 13.6608 3.73208C13.4812 3.75797 13.3015 3.78063 13.1219 3.80653C13.0378 3.16094 12.9702 2.51349 12.8722 1.86928C12.652 1.89842 12.4308 1.92385 12.2091 1.93772C12.1907 1.7828 12.168 1.62833 12.1448 1.47434C12.7852 1.37074 13.4319 1.3134 14.0762 1.23755C14.0969 1.39849 14.1153 1.55942 14.1346 1.72036C13.9013 1.75089 13.6671 1.77725 13.4348 1.81193ZM15.4618 3.68999C15.2802 3.69137 15.0981 3.69184 14.9165 3.69553C14.932 2.88114 14.9846 2.06813 15.0092 1.25374C15.2 1.25929 15.3912 1.26715 15.5825 1.27871C15.5502 2.08293 15.512 2.8867 15.4618 3.68999ZM18.2523 2.19115C17.9046 2.08894 17.5447 2.03345 17.1907 1.95622C17.1395 2.12733 17.1024 2.30168 17.069 2.47696C17.3709 2.54678 17.6737 2.61292 17.976 2.68044C17.9606 2.82982 17.933 2.97735 17.9002 3.12348C17.5911 3.08047 17.283 3.02822 16.9782 2.96393C16.9106 3.26268 16.8546 3.56374 16.7754 3.85972C16.5962 3.83428 16.419 3.79728 16.2417 3.76121C16.3161 3.29181 16.4436 2.83167 16.519 2.36227C16.5861 2.03206 16.6479 1.70095 16.7213 1.37167C17.2757 1.4822 17.8311 1.58764 18.3798 1.72222C18.345 1.87992 18.3165 2.04084 18.2523 2.19115ZM18.4928 4.26484C18.743 3.50131 19.0361 2.7512 19.3008 1.9923C19.4843 2.04502 19.6639 2.10931 19.8407 2.17914C19.5572 2.93619 19.295 3.70018 19.0168 4.45907C18.8405 4.39803 18.6584 4.34946 18.4928 4.26484ZM21.42 5.19068C21.3461 5.32572 21.2553 5.45105 21.1713 5.57962C20.7009 5.30584 20.2227 5.0427 19.7605 4.75505L19.7461 4.72221C20.129 4.03684 20.5545 3.37321 20.9346 2.68599C21.4393 2.93433 21.9193 3.22522 22.4076 3.50131C22.3183 3.63125 22.2284 3.76121 22.1289 3.88423C21.8102 3.71312 21.5006 3.52628 21.1737 3.36905C21.1027 3.5064 21.022 3.63959 20.9573 3.77971C21.2224 3.95129 21.5286 4.05534 21.7899 4.23247C21.7102 4.36659 21.6339 4.50208 21.5542 4.6362C21.2746 4.47942 20.9877 4.33559 20.7047 4.18437C20.6284 4.33236 20.5468 4.47804 20.4647 4.62279C20.7776 4.81979 21.1051 4.99599 21.42 5.19068ZM24.5089 6.01988C24.3138 6.51148 23.8149 6.92631 23.247 6.91706C22.8476 6.9152 22.5491 6.62987 22.2589 6.40557C22.098 6.25943 21.9025 6.1415 21.7605 5.98195C21.9628 5.71465 22.2053 5.47648 22.4192 5.21796C22.7288 4.8688 23.0244 4.50947 23.3291 4.15614C23.7155 4.41558 24.0965 4.70092 24.3718 5.07275C24.5766 5.34144 24.6422 5.70865 24.5089 6.01988Z" fill="#2F6EFF"/>
<path d="M10.7415 2.37183C10.5384 2.37276 10.3497 2.45796 10.1606 2.52003C10.2196 2.71917 10.2985 2.9123 10.3594 3.11145C10.5732 3.05216 10.8025 2.99612 10.9712 2.84839C11.1212 2.67749 10.9775 2.37276 10.7415 2.37183Z" fill="#2F6EFF"/>
<path d="M23.4812 4.86377C23.2456 5.11305 23.019 5.36926 22.7853 5.61947C22.6776 5.7411 22.5636 5.85997 22.4849 6.00194C22.6954 6.19017 22.9374 6.41031 23.247 6.39829C23.6744 6.35204 24.0246 5.95107 24.026 5.54455C23.9821 5.2444 23.7087 5.04553 23.4812 4.86377Z" fill="#2F6EFF"/>
<path d="M9.92284 16.521C9.79292 16.5067 9.5611 16.5487 9.54178 16.3725C9.5326 15.3398 9.53646 14.3066 9.53598 13.2739C9.52101 13.1666 9.60891 13.0626 9.72145 13.0552C9.87986 13.0394 10.0397 13.0524 10.1991 13.0404C10.215 12.6704 10.1837 12.3008 10.2025 11.9313C10.201 11.8744 10.2179 11.793 10.1416 11.7745C9.12014 11.7644 8.0972 11.7778 7.07474 11.7792C6.99698 11.7778 6.91921 11.7861 6.84339 11.8018C6.8516 12.1709 6.84001 12.5404 6.84725 12.9099C6.83952 12.9654 6.88348 13.0047 6.91632 13.0445C7.06315 13.0431 7.21191 13.0348 7.35776 13.0607C7.45774 13.0801 7.51231 13.1791 7.50604 13.2716C7.51038 14.2909 7.50652 15.3107 7.50893 16.33C7.52052 16.4063 7.48479 16.4914 7.40075 16.5131C7.2462 16.5469 7.08633 16.5201 6.92984 16.5312C6.85401 16.5487 6.83759 16.6315 6.84146 16.6953C6.84048 17.0052 6.84676 17.3155 6.84048 17.6254C6.83518 17.6864 6.84918 17.7466 6.87043 17.8044C7.98224 17.8048 9.09357 17.8113 10.2054 17.8007C10.229 17.4173 10.2121 17.0325 10.2131 16.6491C10.2353 16.4905 10.0238 16.5363 9.92284 16.521Z" fill="#2F6EFF"/>
<path d="M15.3253 14.6558C14.782 14.2479 14.1073 14.0698 13.4707 13.8437C13.1626 13.735 12.8341 13.6503 12.5685 13.4584C12.4169 13.3511 12.4193 13.1046 12.5975 13.0241C12.8974 12.8734 13.2625 12.9256 13.5765 13.0093C13.9909 13.1162 14.3101 13.4209 14.5347 13.759C14.583 13.8538 14.7028 13.827 14.7931 13.833C15.1316 13.8284 15.4707 13.8395 15.8093 13.82C15.8556 13.6563 15.8238 13.4857 15.8349 13.3192C15.8368 12.8155 15.8527 12.3105 15.8315 11.8078C15.8209 11.7981 15.8001 11.7786 15.7895 11.7689C15.3727 11.7657 14.9534 11.7541 14.5371 11.7842C14.525 11.9105 14.5212 12.0376 14.5226 12.1643C14.2666 12.0769 14.043 11.9169 13.7784 11.8475C13.1418 11.6612 12.4415 11.706 11.8151 11.9081C11.2331 12.0945 10.754 12.5898 10.6728 13.1809C10.6221 13.6059 10.6622 14.0693 10.923 14.431C11.1573 14.7686 11.532 14.9855 11.9117 15.1464C12.5105 15.4258 13.1732 15.5474 13.7774 15.8147C13.8812 15.8633 13.9846 15.9211 14.0614 16.0062C14.1696 16.1237 14.1802 16.3105 14.0928 16.4414C14.0078 16.5524 13.8701 16.6153 13.7325 16.6421C13.2891 16.7193 12.8187 16.5977 12.4656 16.3322C12.2372 16.1713 12.0981 15.9317 11.9368 15.7167C11.5335 15.6815 11.1254 15.706 10.7206 15.7157C10.7018 16.212 10.7197 16.7087 10.711 17.2054C10.7158 17.402 10.6883 17.6017 10.7327 17.7964C11.1621 17.8112 11.5958 17.8279 12.0227 17.79C12.0266 17.6845 12.0305 17.5791 12.0363 17.4741C12.13 17.5069 12.2208 17.5476 12.3087 17.5939C12.8911 17.8839 13.5712 17.9426 14.2135 17.8492C14.7385 17.7655 15.2688 17.5657 15.6243 17.1716C16.0107 16.7582 16.101 16.1606 15.9972 15.6306C15.9218 15.2343 15.6586 14.8921 15.3253 14.6558Z" fill="#2F6EFF"/>
<path d="M22.7236 14.1273C22.6265 13.3985 22.2758 12.6626 21.6282 12.2376C20.8588 11.7206 19.8639 11.6688 18.9573 11.746C18.3541 11.8177 17.7412 12.017 17.2896 12.4208C16.8351 12.8139 16.5521 13.3661 16.4574 13.9423C16.3164 14.7406 16.3357 15.5902 16.6593 16.3477C16.9457 17.0081 17.5615 17.5122 18.2701 17.7231C19.0254 17.9521 19.847 17.9447 20.6163 17.7828C21.4277 17.614 22.1643 17.0715 22.4782 16.326C22.7757 15.6355 22.8211 14.8627 22.7236 14.1273ZM20.5217 15.8885C20.442 16.1692 20.2396 16.4462 19.93 16.5184C19.5881 16.5942 19.1887 16.5905 18.9023 16.3713C18.7009 16.2067 18.6072 15.9565 18.5449 15.7178C18.4372 15.2146 18.4314 14.6953 18.4884 14.1861C18.5284 13.9026 18.5835 13.6061 18.767 13.3726C18.883 13.213 19.0645 13.1029 19.2616 13.0618C19.604 12.9984 20.0049 13.016 20.2768 13.2505C20.5014 13.4419 20.5763 13.7352 20.6207 14.0085C20.7086 14.6333 20.6931 15.2775 20.5217 15.8885Z" fill="#2F6EFF"/>
<path d="M3.63468 14.7093C3.33186 14.5997 3.03097 14.4864 2.72669 14.381C2.66486 14.3648 2.63154 14.3107 2.61126 14.2575C2.47893 13.9287 2.36011 13.5947 2.22729 13.2668C2.15194 13.2345 2.13262 13.3251 2.11186 13.3709C1.98194 13.6956 1.8612 14.0244 1.71969 14.3444C1.3734 14.504 0.996678 14.6011 0.649414 14.7597C0.651347 14.7773 0.655694 14.8129 0.657627 14.8305C0.987985 15.0155 1.37774 15.0775 1.71002 15.2551C1.90514 15.6038 1.97808 16.0089 2.1901 16.3484C2.23164 16.2979 2.27269 16.2457 2.29105 16.1833C2.40551 15.8697 2.50646 15.546 2.66535 15.2514C3.01213 15.0631 3.42121 15.0039 3.7588 14.7995C3.72596 14.7574 3.68491 14.7274 3.63468 14.7093Z" fill="#2F6EFF"/>
<path d="M28.9539 14.759C28.6636 14.6189 28.3472 14.537 28.0478 14.4172C27.9725 14.3862 27.8904 14.3488 27.8619 14.2692C27.744 14.0283 27.6658 13.7721 27.5677 13.5237C27.5262 13.4247 27.5098 13.3073 27.4156 13.2397C27.2412 13.6037 27.1282 13.9913 26.9597 14.3576C26.6308 14.4834 26.2985 14.5994 25.9652 14.7146C25.9203 14.7326 25.8454 14.7599 25.8817 14.8182C26.2173 14.9972 26.6032 15.0726 26.9432 15.2441C27.1321 15.6044 27.2533 15.9943 27.418 16.3657C27.504 16.2787 27.5296 16.1589 27.5701 16.0502C27.6629 15.7792 27.7788 15.5165 27.8802 15.2488C28.1879 15.1211 28.5028 15.011 28.8152 14.895C28.878 14.8672 28.9713 14.845 28.9539 14.759Z" fill="#2F6EFF"/>
<path d="M9.24171 10.5829C9.5904 10.1195 9.98691 9.68848 10.4322 9.30788C10.6925 9.49656 10.9663 9.66814 11.2392 9.84017C10.9919 10.1875 10.7171 10.5228 10.5438 10.9126C10.5066 10.9917 10.6737 11.049 10.7138 10.9843C10.9523 10.6296 11.1455 10.2374 11.4565 9.93359C11.9052 10.1149 12.3582 10.2841 12.8185 10.4354C12.7354 10.613 12.6707 10.7984 12.6258 10.988C12.6871 11.0093 12.7823 11.0361 12.8151 10.9575C12.8982 10.8002 12.9513 10.6305 13.03 10.471C13.5738 10.6092 14.136 10.661 14.6962 10.6916C14.6981 10.7827 14.6981 10.8738 14.7078 10.9644C14.6972 11.0569 14.8493 11.0601 14.8884 11.0014C14.9019 10.896 14.8976 10.7901 14.9 10.6846C15.467 10.6647 16.0359 10.6079 16.5879 10.4807C16.6647 10.6472 16.7062 10.8271 16.7908 10.9903C16.8478 11.0666 16.9265 10.9991 16.9868 10.9686C16.9323 10.7901 16.8791 10.6106 16.7999 10.4404C17.2501 10.2925 17.7021 10.1449 18.1286 9.94052C18.427 10.2508 18.6308 10.6291 18.88 10.9741C18.9235 11.0527 19.0655 10.9977 19.0631 10.9159C18.8573 10.5325 18.6028 10.175 18.3246 9.83739C18.6212 9.69079 18.8878 9.49702 19.1746 9.33469C19.716 9.77911 20.1657 10.3188 20.5559 10.8881C20.5955 10.9413 20.6341 10.9986 20.6916 11.0365C20.738 11.025 20.7829 11.0083 20.8254 10.9857C20.6085 10.5477 20.2893 10.1611 19.9575 9.79715C19.3461 9.15016 18.6255 8.58735 17.7987 8.21182C17.0815 7.88671 16.3122 7.64669 15.5187 7.58149C13.7979 7.39002 12.0259 7.88671 10.65 8.88517C9.88067 9.45076 9.20502 10.1537 8.75635 10.9815C8.79499 10.9954 8.87226 11.0241 8.91089 11.0384C9.0408 10.9001 9.12919 10.7336 9.24171 10.5829ZM12.8996 10.2222C12.4466 10.1283 12.0221 9.94423 11.6038 9.75785C11.9173 9.42349 12.2553 9.1081 12.6316 8.83801C12.8247 8.69373 13.0508 8.59661 13.2459 8.45463C13.4173 8.53834 13.5941 8.61232 13.7805 8.65996C13.4487 9.16035 13.1498 9.68015 12.8996 10.2222ZM13.0947 10.2615C13.3541 9.72594 13.6376 9.19365 14.0075 8.72009C14.2311 8.7631 14.4576 8.79686 14.6865 8.79732C14.6948 9.35829 14.687 9.91926 14.6928 10.4798C14.1548 10.4548 13.6134 10.4095 13.0947 10.2615ZM14.8976 10.4724C14.9208 9.91278 14.8638 9.35227 14.9043 8.79362C15.1125 8.7853 15.3173 8.7483 15.5235 8.72657C15.6486 8.78714 15.7118 8.9245 15.7968 9.02763C16.0644 9.42951 16.3334 9.84064 16.4913 10.2957C15.9688 10.4127 15.4337 10.4677 14.8976 10.4724ZM16.7082 10.236C16.4768 9.74906 16.2431 9.25561 15.9041 8.82691C15.8582 8.77234 15.8229 8.71129 15.7993 8.64562C15.9852 8.60214 16.1687 8.54527 16.3363 8.45509C16.9704 8.78297 17.5191 9.25052 17.9822 9.77311C17.5703 9.95578 17.1535 10.1426 16.7082 10.236ZM16.8758 8.07541C17.6543 8.30433 18.3922 8.68216 19.0012 9.2029C18.7409 9.38141 18.4656 9.54096 18.1797 9.67923C17.7195 9.15665 17.1752 8.69511 16.5493 8.36121C16.6555 8.26317 16.7782 8.18224 16.8758 8.07541ZM13.483 7.87424C14.5233 7.65318 15.6225 7.70821 16.6401 8.0042C16.4725 8.21832 16.1914 8.30849 15.9437 8.40977C15.3979 8.57996 14.8082 8.6572 14.2388 8.56147C13.7776 8.46666 13.3067 8.32468 12.9445 8.0227C13.1111 7.93667 13.3014 7.9154 13.483 7.87424ZM12.3828 8.17947C12.4881 8.13507 12.5982 8.10269 12.7098 8.07587C12.8088 8.17622 12.917 8.26825 13.0315 8.35382C12.4065 8.67661 11.8854 9.14601 11.4136 9.64825C11.1146 9.53356 10.8577 9.34441 10.5829 9.18764C11.1219 8.76355 11.7395 8.43474 12.3828 8.17947Z" fill="#2F6EFF"/>
<path d="M20.682 18.5265C20.2618 19.1638 19.7557 19.7493 19.1679 20.252C18.9052 20.0684 18.6323 19.9001 18.3561 19.7359C18.5874 19.3627 18.9028 19.0348 19.0694 18.6269C19.0544 18.5566 18.9636 18.5575 18.9105 18.5298C18.6893 18.9178 18.4435 19.2914 18.1561 19.6388C17.7297 19.4159 17.267 19.2637 16.7981 19.1481C16.8527 18.971 16.9053 18.7929 16.9531 18.6139C16.9323 18.5954 16.8903 18.5584 16.8696 18.5399C16.6807 18.6579 16.6744 18.9021 16.5962 19.0856C16.0423 18.9469 15.469 18.8886 14.8977 18.8674C14.8928 18.7536 14.8899 18.6398 14.8909 18.5261C14.832 18.5247 14.7204 18.5071 14.7093 18.5857C14.6953 18.6796 14.6992 18.7749 14.6972 18.8701C14.1322 18.8868 13.571 18.9626 13.019 19.0764C12.9538 18.9081 12.8934 18.7374 12.807 18.5788C12.7408 18.5168 12.6017 18.5802 12.6418 18.6699C12.6838 18.8331 12.7596 18.9876 12.7958 19.1536C12.3375 19.2831 11.8835 19.4306 11.4571 19.6397C11.1354 19.3187 10.9408 18.9081 10.6757 18.5487C10.6269 18.5603 10.5781 18.5714 10.5293 18.583C10.5332 18.6047 10.5409 18.6477 10.5448 18.6694C10.7452 19.0436 10.9886 19.3955 11.2484 19.7345C10.9823 19.907 10.6882 20.0392 10.4366 20.2335C10.0251 19.9306 9.68898 19.5449 9.36878 19.1569C9.19878 18.9576 9.07177 18.7286 8.89983 18.5312C8.85298 18.5608 8.80662 18.5913 8.76074 18.6218C9.69671 20.1734 11.2813 21.3684 13.0982 21.8184C13.6381 21.9395 14.1887 22.0255 14.7445 22.0315C17.0139 22.0473 19.236 20.9013 20.5134 19.1125C20.6298 18.9423 20.7665 18.7818 20.8433 18.5904C20.7892 18.5686 20.7356 18.5478 20.682 18.5265ZM16.7068 19.3234C17.153 19.4487 17.607 19.5717 18.0103 19.7997C17.5573 20.3352 16.9932 20.7718 16.3803 21.1293C16.1756 21.0664 15.9785 20.9831 15.7757 20.9156C16.1567 20.4273 16.4851 19.8959 16.7068 19.3234ZM16.5006 19.2743C16.2746 19.8413 15.9413 20.3639 15.5738 20.856C15.3545 20.8324 15.1353 20.8079 14.9151 20.7921C14.8938 20.2168 14.9039 19.6415 14.8957 19.0667C15.4371 19.0653 15.9756 19.1522 16.5006 19.2743ZM14.691 19.0773C14.69 19.648 14.6943 20.2182 14.704 20.7884C14.4828 20.8 14.2621 20.8231 14.0467 20.8731C13.6265 20.4125 13.3305 19.8589 13.102 19.291C13.6135 19.1277 14.1563 19.0977 14.691 19.0773ZM11.7396 19.7276C12.1076 19.5689 12.4892 19.4418 12.877 19.3363C13.1383 19.8871 13.4131 20.4425 13.8125 20.9156C13.6265 21.0049 13.4247 21.0567 13.2286 21.12C13.0475 20.9901 12.8422 20.8953 12.6596 20.7681C12.268 20.4934 11.9396 20.1489 11.5938 19.8252C11.6387 19.7881 11.6836 19.7493 11.7396 19.7276ZM11.3933 20.9156C11.1036 20.7538 10.8143 20.5826 10.5733 20.3574C10.8408 20.203 11.1074 20.0467 11.3755 19.8931C11.5368 20.0226 11.6561 20.1919 11.8111 20.3278C12.1685 20.683 12.5925 20.9674 13.0262 21.231C12.9132 21.3106 12.807 21.3984 12.7089 21.4946C12.2549 21.3374 11.8043 21.1607 11.3933 20.9156ZM13.7733 21.7494C13.4802 21.7013 13.1919 21.6315 12.9079 21.5487C13.3764 21.2047 13.967 21.0525 14.5485 21.0063C15.2237 20.9577 15.9099 21.108 16.49 21.4433C16.5445 21.4803 16.5953 21.5237 16.6455 21.5672C15.7167 21.8225 14.7281 21.9229 13.7733 21.7494ZM16.8671 21.4831C16.7764 21.3947 16.6759 21.3161 16.5697 21.2463C16.9637 20.985 17.3728 20.7348 17.7109 20.4055C17.8765 20.2325 18.0378 20.0559 18.2136 19.8926C18.4711 20.0494 18.7275 20.209 18.9782 20.3759C18.9796 20.3824 18.9835 20.3958 18.9854 20.4027C18.3561 20.8814 17.6317 21.2458 16.8671 21.4831Z" fill="#2F6EFF"/>
<path d="M28.1258 18.0951C26.8562 18.0983 25.587 18.0895 24.3173 18.1006C24.197 18.3319 24.1304 18.5848 24.013 18.8179C23.3456 20.2955 22.284 21.6093 20.9511 22.5911C19.5974 23.6021 17.9664 24.2667 16.2664 24.5002C14.3259 24.7735 12.3023 24.4956 10.5231 23.7025C9.60697 23.2839 8.7676 22.723 8.01033 22.0778C6.8184 21.0313 5.91237 19.6984 5.34828 18.2496C5.32365 18.1978 5.29999 18.145 5.2599 18.103C4.91266 18.0812 4.56348 18.1002 4.21528 18.0946C2.81133 18.103 1.40786 18.0812 0.00439453 18.0969C0.238144 19.07 0.58346 20.0185 1.00073 20.9328C1.75994 22.4973 2.77994 23.9508 4.03755 25.1883C5.19471 26.3154 6.52138 27.2902 7.98667 28.0214C9.77843 28.9158 11.7658 29.4425 13.7816 29.5665C15.5555 29.6729 17.3579 29.5115 19.0589 29.0055C22.0923 28.1426 24.7886 26.2983 26.72 23.9083C27.1237 23.4065 27.5101 22.8899 27.8303 22.335C28.291 21.5885 28.6933 20.8074 29.0092 19.994C29.2318 19.3715 29.44 18.7425 29.595 18.1011C29.1058 18.0808 28.6156 18.1006 28.1258 18.0951ZM6.39243 23.3584C5.9114 23.4712 5.58348 24.0609 5.83896 24.49C6.00703 24.7874 6.3678 24.9349 6.7107 24.9197C6.68558 25.0912 6.65902 25.2633 6.64887 25.4367C6.07851 25.445 5.53084 25.0894 5.29902 24.5969C5.03194 24.0327 5.28791 23.3209 5.82785 22.9967C6.15191 22.7891 6.58994 22.7613 6.93863 22.9288C7.39309 23.1341 7.77173 23.5535 7.80891 24.0479C7.62056 24.0821 7.43076 24.1066 7.24 24.1261C7.27044 23.702 6.84012 23.283 6.39243 23.3584ZM9.25586 26.8828C8.51694 27.1395 7.60464 26.6016 7.5293 25.8478C7.46121 25.2406 7.85191 24.5631 8.48845 24.3985C9.12353 24.2569 9.82623 24.6283 10.0566 25.2096C10.3193 25.8506 9.93296 26.6534 9.25586 26.8828ZM13.2484 28.2313C13.0615 28.2179 12.8766 28.1897 12.6935 28.1527C12.7838 27.6741 12.8659 27.194 12.9408 26.7126C12.6389 27.1483 12.353 27.5941 12.0386 28.0219C11.9179 27.9983 11.7976 27.9751 11.6774 27.9539C11.5407 27.4502 11.4716 26.9328 11.3615 26.4241C11.2234 26.8773 11.1437 27.3443 11.0056 27.798C10.8201 27.7536 10.6352 27.7074 10.4502 27.6616C10.6675 26.893 10.8409 26.1137 11.0413 25.3405C11.2427 25.3645 11.4451 25.3983 11.6373 25.464C11.6822 25.5088 11.6779 25.5824 11.6977 25.6411C11.7923 26.1401 11.9198 26.6326 12.0174 27.1312C12.355 26.6733 12.651 26.1877 13.0098 25.7447C13.2199 25.7729 13.43 25.8034 13.6372 25.8483C13.5025 26.6419 13.3885 27.4387 13.2484 28.2313ZM15.8593 27.3804C15.5917 27.5242 15.2715 27.4919 14.9764 27.5108C14.9557 27.7879 14.976 28.0662 14.9673 28.3442C14.7823 28.3488 14.5973 28.3461 14.4128 28.3433C14.3988 27.5289 14.3877 26.714 14.365 25.8996C14.7331 25.8927 15.1011 25.858 15.4696 25.8746C15.755 25.8857 16.0689 26.0106 16.1921 26.2737C16.3741 26.6479 16.2645 27.183 15.8593 27.3804ZM18.8517 27.7643C18.7647 27.6144 18.6686 27.4701 18.56 27.3342C18.2581 27.4114 17.9544 27.4817 17.6477 27.5376C17.6081 27.7078 17.6023 27.8826 17.5839 28.0556C17.3893 28.0908 17.1995 28.1458 17.0044 28.1772C17.0995 27.3157 17.2212 26.4573 17.3381 25.5981C17.5477 25.5528 17.7583 25.5144 17.9684 25.4718C18.4479 26.1863 18.9676 26.8754 19.4225 27.6047C19.2303 27.651 19.0424 27.7125 18.8517 27.7643ZM21.7001 26.5531C21.1602 26.234 20.5879 25.9685 20.0494 25.6466C20.3232 26.0841 20.5425 26.5494 20.7883 27.0012C20.6251 27.0914 20.4604 27.1783 20.2885 27.2519C19.9002 26.5346 19.4887 25.8279 19.1395 25.0921C19.3216 25.0163 19.4926 24.9178 19.678 24.8507C19.7572 24.8517 19.82 24.9146 19.8881 24.9488C20.3353 25.2425 20.8265 25.4658 21.2858 25.7401C21.0023 25.3118 20.7961 24.8415 20.5435 24.3966C20.7048 24.3129 20.8666 24.2292 21.0303 24.1496C21.4345 24.8507 21.7992 25.5717 22.2087 26.27C22.0435 26.3718 21.8721 26.4624 21.7001 26.5531ZM23.6262 25.2346C23.3881 24.9927 23.2161 24.6917 22.9442 24.4817C22.4603 24.2653 21.9421 24.1242 21.4693 23.8828C21.618 23.7506 21.7702 23.6206 21.9344 23.5055C22.2488 23.6354 22.5482 23.7982 22.8718 23.9083C22.7935 23.572 22.709 23.2372 22.6332 22.9005C22.8022 22.7586 22.9669 22.6115 23.1451 22.4797C23.2238 23.0148 23.3031 23.5517 23.418 24.0812C23.5788 24.3777 23.8763 24.5881 24.0676 24.8618C23.9324 24.9983 23.7696 25.1065 23.6262 25.2346Z" fill="#2F6EFF"/>
<path d="M8.62365 24.9399C8.25803 25.0846 8.05711 25.4981 8.09865 25.863C8.14115 26.2556 8.60722 26.5377 8.99505 26.3995C9.40364 26.2556 9.65672 25.7848 9.53598 25.3839C9.42828 25.0296 8.9883 24.8016 8.62365 24.9399Z" fill="#2F6EFF"/>
<path d="M17.6812 27.0672C17.8917 27.015 18.1004 26.9563 18.3105 26.9035C18.1236 26.6617 17.984 26.3869 17.7787 26.1589C17.757 26.4628 17.7048 26.7639 17.6812 27.0672Z" fill="#2F6EFF"/>
<path d="M15.5167 26.3722C15.33 26.3217 15.1336 26.3574 14.9435 26.3616C14.9353 26.5871 14.9339 26.8131 14.9416 27.0391C15.1501 27.0257 15.3813 27.0567 15.5694 26.9539C15.7962 26.8256 15.7638 26.4607 15.5167 26.3722Z" fill="#2F6EFF"/>
</svg>
