<svg width="258" height="35" viewBox="0 0 258 35" fill="none" xmlns="http://www.w3.org/2000/svg">
<path d="M2.4 34.272V0.67197H8.88V29.232H23.664V34.272H2.4ZM27.582 34.272V10.464H34.062V34.272H27.582ZM30.846 7.34397C29.662 7.34397 28.686 6.99197 27.918 6.28797C27.182 5.58397 26.814 4.71997 26.814 3.69597C26.814 2.63997 27.182 1.75997 27.918 1.05597C28.686 0.351971 29.662 -2.95639e-05 30.846 -2.95639e-05C32.03 -2.95639e-05 32.99 0.351971 33.726 1.05597C34.494 1.75997 34.878 2.63997 34.878 3.69597C34.878 4.71997 34.494 5.58397 33.726 6.28797C32.99 6.99197 32.03 7.34397 30.846 7.34397ZM40.7775 34.272V8.63997C40.7775 6.62397 41.1135 5.02397 41.7855 3.83997C42.4575 2.65597 43.4175 1.79197 44.6655 1.24797C45.9135 0.703971 47.3855 0.431971 49.0815 0.431971H51.7695V5.85597H50.0895C49.0655 5.85597 48.3295 6.06397 47.8815 6.47997C47.4655 6.86397 47.2575 7.55197 47.2575 8.54397V34.272H40.7775ZM37.5135 15.696V10.464H52.2495V15.696H37.5135ZM66.7481 34.848C64.3161 34.848 62.1561 34.336 60.2681 33.312C58.4121 32.288 56.9561 30.848 55.9001 28.992C54.8441 27.136 54.3161 25.008 54.3161 22.608C54.3161 20.112 54.8281 17.92 55.8521 16.032C56.9081 14.112 58.3641 12.608 60.2201 11.52C62.1081 10.432 64.3001 9.88797 66.7961 9.88797C69.1641 9.88797 71.2441 10.4 73.0361 11.424C74.8281 12.448 76.2361 13.856 77.2601 15.648C78.2841 17.408 78.7961 19.408 78.7961 21.648C78.7961 21.968 78.7961 22.336 78.7961 22.752C78.7961 23.136 78.7641 23.536 78.7001 23.952H58.9241V19.968H72.2201C72.1241 18.464 71.5641 17.264 70.5401 16.368C69.5481 15.472 68.3001 15.024 66.7961 15.024C65.6761 15.024 64.6521 15.28 63.7241 15.792C62.7961 16.272 62.0601 17.024 61.5161 18.048C60.9721 19.04 60.7001 20.304 60.7001 21.84V23.232C60.7001 24.544 60.9561 25.68 61.4681 26.64C61.9801 27.568 62.6841 28.288 63.5801 28.8C64.5081 29.312 65.5481 29.568 66.7001 29.568C67.8841 29.568 68.8761 29.312 69.6761 28.8C70.4761 28.256 71.0841 27.568 71.5001 26.736H78.1241C77.6441 28.24 76.8761 29.616 75.8201 30.864C74.7641 32.08 73.4681 33.056 71.9321 33.792C70.3961 34.496 68.6681 34.848 66.7481 34.848ZM92.7904 34.272C91.0944 34.272 89.6064 34.016 88.3264 33.504C87.0784 32.96 86.1024 32.08 85.3984 30.864C84.6944 29.616 84.3424 27.92 84.3424 25.776V15.696H80.2624V10.464H84.3424L85.0624 3.98397H90.8224V10.464H97.1584V15.696H90.8224V25.872C90.8224 26.992 91.0624 27.776 91.5424 28.224C92.0224 28.64 92.8384 28.848 93.9904 28.848H97.0144V34.272H92.7904ZM100.707 34.272V10.464H107.187V34.272H100.707ZM103.971 7.34397C102.787 7.34397 101.811 6.99197 101.043 6.28797C100.307 5.58397 99.939 4.71997 99.939 3.69597C99.939 2.63997 100.307 1.75997 101.043 1.05597C101.811 0.351971 102.787 -2.95639e-05 103.971 -2.95639e-05C105.155 -2.95639e-05 106.115 0.351971 106.851 1.05597C107.619 1.75997 108.003 2.63997 108.003 3.69597C108.003 4.71997 107.619 5.58397 106.851 6.28797C106.115 6.99197 105.155 7.34397 103.971 7.34397ZM112.271 34.272V10.464H117.935L118.511 14.256H118.655C119.391 12.816 120.399 11.728 121.679 10.992C122.991 10.256 124.511 9.88797 126.239 9.88797C127.423 9.88797 128.511 10.048 129.503 10.368C130.495 10.688 131.375 11.184 132.143 11.856C132.911 12.528 133.551 13.392 134.062 14.448H134.207C135.103 13.008 136.223 11.888 137.567 11.088C138.943 10.288 140.607 9.88797 142.559 9.88797C144.479 9.88797 146.111 10.32 147.455 11.184C148.831 12.016 149.887 13.248 150.623 14.88C151.359 16.512 151.727 18.528 151.727 20.928V34.272H145.295V21.504C145.295 19.52 144.911 18 144.143 16.944C143.375 15.888 142.159 15.36 140.495 15.36C139.439 15.36 138.511 15.6 137.711 16.08C136.943 16.56 136.335 17.264 135.887 18.192C135.439 19.12 135.215 20.272 135.215 21.648V34.272H128.783V21.504C128.783 19.52 128.399 18 127.631 16.944C126.863 15.888 125.647 15.36 123.983 15.36C123.023 15.36 122.143 15.632 121.343 16.176C120.543 16.688 119.903 17.44 119.423 18.432C118.975 19.392 118.751 20.576 118.751 21.984V34.272H112.271ZM167.576 34.848C165.144 34.848 162.984 34.336 161.096 33.312C159.24 32.288 157.784 30.848 156.728 28.992C155.672 27.136 155.144 25.008 155.144 22.608C155.144 20.112 155.656 17.92 156.68 16.032C157.736 14.112 159.192 12.608 161.048 11.52C162.936 10.432 165.128 9.88797 167.624 9.88797C169.992 9.88797 172.072 10.4 173.864 11.424C175.656 12.448 177.064 13.856 178.088 15.648C179.112 17.408 179.624 19.408 179.624 21.648C179.624 21.968 179.624 22.336 179.624 22.752C179.624 23.136 179.592 23.536 179.528 23.952H159.752V19.968H173.048C172.952 18.464 172.392 17.264 171.368 16.368C170.376 15.472 169.128 15.024 167.624 15.024C166.504 15.024 165.48 15.28 164.552 15.792C163.624 16.272 162.888 17.024 162.344 18.048C161.8 19.04 161.528 20.304 161.528 21.84V23.232C161.528 24.544 161.784 25.68 162.296 26.64C162.808 27.568 163.512 28.288 164.408 28.8C165.336 29.312 166.376 29.568 167.528 29.568C168.712 29.568 169.704 29.312 170.504 28.8C171.304 28.256 171.912 27.568 172.328 26.736H178.952C178.472 28.24 177.704 29.616 176.648 30.864C175.592 32.08 174.296 33.056 172.76 33.792C171.224 34.496 169.496 34.848 167.576 34.848Z" fill="url(#paint0_linear_17333_22464)"/>
<path d="M241.028 0.884888C235.343 0.884888 230.809 3.74088 228.007 6.13779L227.908 6.22265L226.313 7.95739L229.835 13.7459L232.442 11.1319C235.17 8.82824 238.215 7.56231 241.028 7.56231C246.704 7.56231 251.323 12.0557 251.323 17.5784C251.323 23.1012 246.704 27.5946 241.028 27.5946C232.403 27.5946 226.541 16.1943 226.483 16.0788C226.143 15.393 218.709 0.884888 205.972 0.884888C196.614 0.884888 189 8.37334 189 17.5784C189 26.7835 196.614 34.272 205.972 34.272C210.556 34.272 215.067 32.4482 219.019 28.9968L219.104 28.9217L220.687 27.1995L217.163 21.411L214.544 24.0374C211.815 26.3982 208.929 27.5946 205.972 27.5946C200.296 27.5946 195.677 23.1012 195.677 17.5784C195.677 12.0557 200.296 7.56231 205.972 7.56231C214.597 7.56231 220.459 18.9626 220.517 19.0781C220.857 19.7639 228.291 34.272 241.028 34.272C250.386 34.272 258 26.7835 258 17.5784C258 8.37334 250.386 0.884888 241.028 0.884888Z" fill="url(#paint1_linear_17333_22464)"/>
<defs>
<linearGradient id="paint0_linear_17333_22464" x1="-44" y1="-4.66351" x2="160.651" y2="98.6082" gradientUnits="userSpaceOnUse">
<stop stop-color="#3FADFF"/>
<stop offset="0.49489" stop-color="#336CDC"/>
<stop offset="1" stop-color="#47B4B4"/>
</linearGradient>
<linearGradient id="paint1_linear_17333_22464" x1="196.393" y1="2.67348" x2="213.533" y2="46.6323" gradientUnits="userSpaceOnUse">
<stop stop-color="#3FADFF"/>
<stop offset="0.49489" stop-color="#336CDC"/>
<stop offset="1" stop-color="#47B4B4"/>
</linearGradient>
</defs>
</svg>
