<svg width="131" height="30" viewBox="0 0 131 30" fill="none" xmlns="http://www.w3.org/2000/svg">
<path d="M14.0135 22.243C13.213 21.7418 12.4124 21.648 8.31773 21.5179C5.6939 21.4433 4.66927 21.3878 4.33411 21.2941C3.94341 21.2023 3.77487 20.9593 3.77487 20.4944C3.77487 19.5837 4.03534 19.5091 7.23756 19.5091C9.91693 19.5091 10.3823 19.5454 10.7002 19.731C10.9799 19.8994 11.0354 20.0658 11.0718 20.7546H14.7203C14.7394 20.5135 14.7394 20.2533 14.7394 20.1787C14.7394 18.7095 14.4406 17.9289 13.6975 17.4276C12.8223 16.8326 11.52 16.6662 7.90788 16.6662C4.92974 16.6662 3.21754 16.7408 2.49168 16.89C0.779484 17.2612 0.109168 18.3211 0.109168 20.6838C0.109168 23.4177 0.965261 24.1983 4.03725 24.292L5.04273 24.3303L7.0537 24.4221L10.0318 24.5331C11.2422 24.5522 11.5219 24.7378 11.5219 25.482C11.5219 26.5783 11.5219 26.5783 7.46355 26.5783C4.80142 26.5783 4.39156 26.5419 4.03917 26.3181C3.74231 26.1325 3.66762 25.8914 3.66762 25.1472H0V25.7422C0 27.4526 0.279618 28.1777 1.13571 28.7172C2.01096 29.2758 3.51823 29.4423 7.37162 29.4423C11.0756 29.4423 12.6384 29.3504 13.3834 29.0711C14.6685 28.5871 15.1895 27.5272 15.1895 25.371C15.1857 23.6377 14.8696 22.8017 14.0135 22.243Z" fill="black"/>
<path d="M15.7831 20.0098H21.3122V29.2504H25.2767V20.0098H30.8059V16.8492H15.7831V20.0098Z" fill="black"/>
<path d="M47.4859 17.5214C46.536 16.7963 45.383 16.6662 40.189 16.6662C34.995 16.6662 33.842 16.7963 32.8921 17.5214C31.9421 18.2465 31.6644 19.511 31.6644 22.97C31.6644 26.6146 31.9249 27.8409 32.8921 28.5852C33.842 29.3103 34.995 29.4404 40.2254 29.4404C45.362 29.4404 46.536 29.3103 47.484 28.5852C48.434 27.8601 48.7136 26.6146 48.7136 23.0446C48.7136 19.4919 48.434 18.2465 47.4859 17.5214ZM44.3776 25.7766C43.8758 26.1478 43.261 26.2224 40.2254 26.2224C37.0979 26.2224 36.5022 26.1669 36.0005 25.7766C35.5542 25.4227 35.4412 24.9215 35.4412 23.3775C35.4412 21.7972 35.5159 21.0913 35.74 20.6627C36.1115 19.9376 36.4658 19.8822 40.189 19.8822C43.6517 19.8822 44.0615 19.9376 44.4886 20.4408C44.8238 20.8502 44.9349 21.5562 44.9349 23.3967C44.9349 24.9023 44.8046 25.4418 44.3776 25.7766Z" fill="black"/>
<path d="M61.9897 24.4757C61.9706 26.3162 61.915 26.3353 57.7648 26.3353C53.7811 26.3353 53.7256 26.297 53.7256 23.1173C53.7256 21.2386 53.875 20.5135 54.3212 20.1424C54.6928 19.8439 55.3823 19.7712 57.7456 19.7712C60.1281 19.7712 61.2275 19.8822 61.5052 20.1251C61.7292 20.3107 61.7656 20.4791 61.8039 21.296H65.5826V20.6819C65.5826 18.6922 65.2111 17.7816 64.1501 17.2421C63.294 16.7963 62.1391 16.6662 58.8258 16.6662C52.3294 16.6662 50.9715 16.9819 50.3012 18.6559C50.0216 19.3446 49.9469 20.3662 49.9469 23.1365C49.9469 24.7167 49.9833 25.7403 50.0388 26.297C50.1882 27.5616 50.5598 28.2485 51.3795 28.7153C52.385 29.2911 53.9478 29.4404 58.8066 29.4404C61.5607 29.4404 62.9205 29.3294 63.926 29.0118C65.303 28.566 65.8239 27.6554 65.8239 25.6465C65.8239 25.461 65.8048 25.1816 65.7856 24.4757H61.9897Z" fill="black"/>
<path d="M90.0432 10.743L89.4571 10.2819L72.9557 21.3496H70.8911V16.8498H67.1124V29.251H70.8911V24.5102H72.9557L78.5232 29.251H84.2554L76.4739 22.9299L90.0432 10.743Z" fill="#14A800"/>
<path d="M92.0575 16.3456L91.5423 11.1513C91.4332 11.1513 91.3221 11.1456 91.2129 11.1322L90.104 16.2346C90.7494 16.3475 91.4044 16.3858 92.0575 16.3456Z" fill="#14A800"/>
<path d="M88.8371 6.95989L84.323 4.32928C84.0127 4.90706 83.7752 5.52119 83.6124 6.15828L88.7203 7.26026C88.7548 7.15695 88.7931 7.05746 88.8371 6.95989Z" fill="#14A800"/>
<path d="M89.6886 5.86405C89.8092 5.76648 89.9395 5.67847 90.0754 5.60003L87.9649 0.824768C87.3597 1.1194 86.7947 1.48672 86.2776 1.92101L88.1315 3.90688L89.6886 5.86405Z" fill="#14A800"/>
<path d="M91.8741 5.23124L92.9754 0.126905C92.3299 0.0121145 91.6749 -0.0242356 91.0219 0.0178541L91.5466 5.2121C91.6558 5.2121 91.765 5.21784 91.8741 5.23124Z" fill="#14A800"/>
<path d="M88.6317 8.7818L83.4319 9.30218C83.5219 9.95266 83.6885 10.5878 83.9298 11.1981L88.714 9.09556C88.6815 8.99225 88.6527 8.88894 88.6317 8.7818Z" fill="#14A800"/>
<path d="M97.4411 2.50705C96.9853 2.03259 96.4758 1.61742 95.9223 1.26923L93.2947 5.7824C93.3828 5.84554 93.467 5.91441 93.5456 5.98903L97.4411 2.50705Z" fill="#14A800"/>
<path d="M94.2557 9.40439L98.7756 12.0254C99.084 11.4477 99.3195 10.8354 99.4823 10.1964L94.3726 9.10211C94.3381 9.20542 94.2998 9.30682 94.2557 9.40439Z" fill="#14A800"/>
<path d="M94.455 7.58491L99.6548 7.05879C99.5648 6.40832 99.3963 5.77314 99.153 5.16284L94.3727 7.27307C94.4052 7.37447 94.434 7.47969 94.455 7.58491Z" fill="#14A800"/>
<path d="M96.8065 14.4456L95.0579 12.5477L93.3323 10.5504C93.2289 10.6288 93.1197 10.6996 93.0087 10.7627L95.1096 15.5437C95.7187 15.2491 96.2875 14.8818 96.8065 14.4456Z" fill="#14A800"/>
<path d="M102.424 26.1262H101.718L98.8908 16.8492H94.3288L91.5173 26.1262H90.8278L87.5566 16.9239L84.6532 19.411L88.3151 29.2504H94.1775L96.6347 20.1571L99.1302 29.2504H104.958L109.777 16.8492H105.774L102.424 26.1262Z" fill="black"/>
<path d="M114.378 16.8492H110.414V29.2523H114.378V16.8492Z" fill="black"/>
<path d="M121.619 26.2754L130.703 19.6941V16.8492H115.831V19.9543L124.597 19.8242L115.626 26.35V29.2504H130.982V26.1453L121.619 26.2754Z" fill="black"/>
</svg>
