<svg width="16" height="16" viewBox="0 0 16 16" fill="none" xmlns="http://www.w3.org/2000/svg">
<path d="M2.66671 13.3333C2.30004 13.3333 1.98626 13.2028 1.72537 12.942C1.46449 12.6811 1.33382 12.3671 1.33337 12V3.99996C1.33337 3.63329 1.46404 3.31951 1.72537 3.05863C1.98671 2.79774 2.30049 2.66707 2.66671 2.66663H13.3334C13.7 2.66663 14.014 2.79729 14.2754 3.05863C14.5367 3.31996 14.6672 3.63374 14.6667 3.99996V12C14.6667 12.3666 14.5363 12.6806 14.2754 12.942C14.0145 13.2033 13.7005 13.3337 13.3334 13.3333H2.66671ZM8.17537 8.52529C8.23626 8.5084 8.29449 8.48329 8.35004 8.44996L13.0667 5.49996C13.1556 5.4444 13.2223 5.37507 13.2667 5.29196C13.3112 5.20885 13.3334 5.11707 13.3334 5.01663C13.3334 4.7944 13.2389 4.62774 13.05 4.51663C12.8612 4.40551 12.6667 4.41107 12.4667 4.53329L8.00004 7.33329L3.53337 4.53329C3.33337 4.41107 3.13893 4.4084 2.95004 4.52529C2.76115 4.64218 2.66671 4.80596 2.66671 5.01663C2.66671 5.12774 2.68893 5.22507 2.73337 5.30863C2.77782 5.39218 2.84449 5.45596 2.93337 5.49996L7.65004 8.44996C7.7056 8.48329 7.76404 8.5084 7.82537 8.52529C7.88671 8.54218 7.94493 8.5504 8.00004 8.54996C8.05515 8.54951 8.1136 8.54129 8.17537 8.52529Z" fill="black"/>
</svg>
