<svg width="30" height="30" viewBox="0 0 30 30" fill="none" xmlns="http://www.w3.org/2000/svg">
<g clip-path="url(#clip0_18058_24969)">
<path d="M28.7744 15.9212C29.2518 15.3753 29.2518 14.5604 28.7744 14.0145L26.6798 11.6195C26.4187 11.3209 26.2914 10.9282 26.3278 10.5332L26.6194 7.36877C26.6861 6.64539 26.2065 5.98457 25.4981 5.82366L22.407 5.12152C22.0185 5.03327 21.6835 4.78884 21.4808 4.44577L19.8611 1.70331C19.4906 1.07613 18.712 0.821679 18.0427 1.10909L15.1343 2.35799C14.7694 2.51466 14.3563 2.51466 13.9914 2.35799L11.0814 1.10839C10.4128 0.821282 9.63496 1.07488 9.26406 1.70091L7.64619 4.4316C7.44277 4.77493 7.10669 5.01911 6.7173 5.10648L3.63136 5.79889C2.92126 5.95822 2.4397 6.61979 2.50629 7.34449L2.79821 10.5212C2.83441 10.9152 2.70784 11.3069 2.44789 11.6052L0.348177 14.0147C-0.127652 14.5607 -0.126931 15.3743 0.349865 15.9195L2.44606 18.3164C2.70712 18.6149 2.83436 19.0074 2.79807 19.4023L2.50598 22.5809C2.43952 23.3042 2.91907 23.9648 3.62733 24.1257L6.71987 24.8281C7.10774 24.9162 7.44229 25.16 7.64504 25.5022L9.26243 28.2321C9.63404 28.8593 10.4139 29.1125 11.0831 28.8232L13.9901 27.5663C14.3557 27.4082 14.7703 27.4077 15.1362 27.5649L18.0443 28.8136C18.7129 29.1007 19.4908 28.8471 19.8617 28.2211L21.4807 25.4885C21.6834 25.1463 22.018 24.9025 22.4059 24.8144L25.4981 24.1121C26.2065 23.9511 26.6861 23.2903 26.6194 22.5669L26.3278 19.4025C26.2914 19.0075 26.4187 18.6149 26.6798 18.3163L28.7744 15.9212Z" fill="#2F6EFF"/>
<circle cx="14.5652" cy="14.9629" r="10.0168" stroke="white" stroke-width="0.241368"/>
<circle cx="14.571" cy="14.964" r="5.18953" stroke="white" stroke-width="0.241368"/>
<g clip-path="url(#clip1_18058_24969)">
<path fill-rule="evenodd" clip-rule="evenodd" d="M15.5362 17.1542H15.1145V16.3307H15.5244C15.6387 16.3307 15.7428 16.3835 15.8016 16.4451C15.8369 16.4821 15.8604 16.5137 15.8823 16.563C15.9696 16.7689 15.8823 17.0082 15.6924 17.1085C15.6555 17.1278 15.5866 17.1542 15.5362 17.1542ZM15.4724 15.7835H15.1145V15.1131H15.4488C15.5412 15.1131 15.6471 15.1554 15.7042 15.1958C15.9159 15.3471 15.8503 15.641 15.6068 15.7448C15.5748 15.7589 15.5144 15.7818 15.4724 15.7818V15.7835ZM11.9176 14.5923C11.9176 14.9425 12.1259 15.041 12.4098 15.041H12.9491V16.1777C13.1406 16.1777 13.9621 16.19 14.0965 16.1636C14.1402 16.1548 14.1956 16.1284 14.2208 16.1038C14.2863 16.0387 14.3166 15.9542 14.3166 15.8222V15.4158H13.8058V15.6428H13.5236V15.1272H14.6038V17.1489H12.603C12.5845 17.1489 12.4501 16.9976 12.4283 16.9747C12.3661 16.9096 12.2821 16.8146 12.2149 16.7566C12.1981 16.7425 12.1864 16.7284 12.1696 16.7108C12.141 16.6809 11.9361 16.4557 11.9092 16.4486C11.9092 16.4803 11.9159 16.4821 11.9159 16.5155V17.6152H15.6236C15.7932 17.6152 15.9612 17.5642 16.0889 17.4762C16.1124 17.4604 16.1259 17.4498 16.1477 17.4322C16.2552 17.3407 16.3039 17.2827 16.3795 17.1454C16.477 16.9659 16.4803 16.8885 16.4803 16.6932C16.4803 16.5348 16.4098 16.3536 16.3191 16.2304C16.2535 16.1425 16.1595 16.0738 16.0637 16.0246C16.0452 16.0158 16.0301 16.0087 16.0116 15.9999C15.9864 15.9894 15.973 15.9947 15.9713 15.963C16.0099 15.9542 16.0788 15.8996 16.1091 15.875C16.2351 15.773 16.3174 15.5724 16.3174 15.3859C16.3174 15.1993 16.309 15.1219 16.2233 14.9671C16.1225 14.7841 15.9646 14.6521 15.7714 14.58C15.684 14.5466 15.548 14.5061 15.4304 14.5061H13.5236V14.0521H13.8058V14.2738H14.3166V13.8375C14.3166 13.7301 14.2326 13.6421 14.1687 13.5982C14.0948 13.5489 13.9839 13.5172 13.8646 13.5172H12.9323V14.5008H12.5106V13.3025C12.5106 13.2779 12.7895 13.0087 12.8432 12.9506C12.86 12.933 12.9457 12.8363 12.9625 12.8363H16.2535C16.272 12.8363 16.4669 13.0509 16.4837 13.0685C16.5005 13.0861 16.7054 13.2902 16.7054 13.3096V13.9853C16.7054 14.0099 16.6315 14.0662 16.6164 14.082L16.2065 14.5131H16.9692C17.0683 14.5131 17.0414 14.4955 17.149 14.3829C17.1641 14.3671 17.2212 14.3178 17.2212 14.2985V12.3242C17.2212 12.3102 17.2178 12.3066 17.2044 12.3066H11.9176V14.5923Z" fill="white"/>
<path fill-rule="evenodd" clip-rule="evenodd" d="M16.7086 17.1913C16.7086 17.2212 16.591 17.3198 16.5574 17.3532C16.507 17.406 16.3205 17.5943 16.3037 17.6207H17.179C17.2008 17.6207 17.2193 17.6259 17.2193 17.6031V15.342H16.7086V17.1913Z" fill="white"/>
<path fill-rule="evenodd" clip-rule="evenodd" d="M16.9529 14.7014C17.0933 14.7014 17.2086 14.8204 17.2086 14.9692C17.2086 15.118 17.095 15.237 16.9529 15.237C16.8109 15.237 16.6973 15.118 16.6973 14.9692C16.6973 14.8204 16.8109 14.7014 16.9529 14.7014Z" fill="white"/>
</g>
<path d="M19.5318 7.85272L17.8163 10.0766L17.4134 9.76585L19.1289 7.54196L19.5318 7.85272Z" fill="white"/>
<path d="M15.0465 8.86997L15.8035 6.16529L16.8389 6.45511C17.0344 6.50982 17.1882 6.58611 17.3004 6.68397C17.4137 6.78119 17.4877 6.89162 17.5224 7.01527C17.5579 7.13916 17.557 7.26801 17.5195 7.40184C17.4887 7.51189 17.4412 7.60018 17.377 7.66671C17.3131 7.73236 17.2387 7.77941 17.1538 7.80788C17.0689 7.83634 16.9795 7.84881 16.8856 7.8453L16.8782 7.87171C16.9727 7.90385 17.0564 7.9591 17.1294 8.03745C17.2036 8.11517 17.2553 8.21034 17.2845 8.32296C17.3137 8.43558 17.3091 8.56056 17.2707 8.69791C17.2315 8.8379 17.1624 8.95431 17.0633 9.04715C16.9644 9.13911 16.8378 9.19812 16.6833 9.22419C16.5288 9.25027 16.3482 9.23435 16.1413 9.17643L15.0465 8.86997ZM15.651 8.59772L16.1779 8.74522C16.3558 8.795 16.4934 8.79696 16.5907 8.7511C16.6892 8.70461 16.7534 8.62766 16.7835 8.52025C16.8059 8.44013 16.8063 8.36239 16.7847 8.28702C16.7633 8.21078 16.7213 8.14394 16.6586 8.08651C16.5961 8.0282 16.5142 7.98487 16.413 7.95653L15.8728 7.80533L15.651 8.59772ZM15.9715 7.45272L16.4562 7.58839C16.5407 7.61205 16.6212 7.61796 16.6976 7.60612C16.7743 7.5934 16.84 7.56385 16.8947 7.51747C16.9506 7.47045 16.9897 7.40732 17.0118 7.32808C17.0412 7.22331 17.0283 7.12668 16.9734 7.03818C16.9193 6.94993 16.82 6.8856 16.6756 6.84518L16.1804 6.70656L15.9715 7.45272Z" fill="white"/>
<path d="M12.7403 9.27538L12.1306 6.53371L13.9138 6.13715L14.0064 6.55349L12.7199 6.8396L12.8854 7.58392L14.0795 7.31835L14.1721 7.73469L12.978 8.00025L13.1444 8.74859L14.4416 8.4601L14.5342 8.87644L12.7403 9.27538Z" fill="white"/>
<path d="M10.9578 7.96294C10.8736 7.87677 10.7736 7.83689 10.6576 7.84329C10.5423 7.84913 10.4254 7.89872 10.3069 7.99206C10.2236 8.05769 10.162 8.12654 10.1222 8.19864C10.0824 8.27073 10.0636 8.34077 10.066 8.40876C10.0683 8.47674 10.0909 8.53867 10.1338 8.59454C10.17 8.6405 10.2118 8.67216 10.2592 8.68951C10.3073 8.7063 10.3591 8.71212 10.4144 8.70697C10.4691 8.7011 10.5249 8.68853 10.5819 8.66925C10.6389 8.64998 10.6942 8.62791 10.748 8.60304L10.9956 8.49183C11.0942 8.4456 11.1949 8.40874 11.2978 8.38124C11.4013 8.35318 11.5035 8.34025 11.6041 8.34244C11.7055 8.34406 11.8021 8.36628 11.8941 8.4091C11.986 8.45192 12.0695 8.52109 12.1448 8.61662C12.2466 8.7459 12.3032 8.88576 12.3147 9.03621C12.3255 9.18593 12.2903 9.33766 12.2088 9.4914C12.1276 9.64386 11.9986 9.78967 11.8219 9.92884C11.6503 10.064 11.4803 10.1549 11.312 10.2013C11.1445 10.2471 10.985 10.2471 10.8335 10.2011C10.6828 10.1545 10.5469 10.0603 10.4257 9.91827L10.819 9.60854C10.8853 9.68086 10.9593 9.72611 11.0411 9.7443C11.1229 9.76248 11.2072 9.75783 11.2938 9.73036C11.3811 9.70232 11.4664 9.65549 11.5497 9.58986C11.6366 9.52141 11.7026 9.44852 11.7475 9.37118C11.7927 9.29256 11.8156 9.2152 11.8161 9.1391C11.8161 9.06228 11.7916 8.99198 11.7425 8.92821C11.6966 8.87132 11.6424 8.83721 11.5799 8.82588C11.5169 8.81384 11.4457 8.81873 11.3662 8.84054C11.287 8.86108 11.1999 8.8924 11.1051 8.93452L10.8031 9.0676C10.5847 9.16404 10.3853 9.20644 10.205 9.19479C10.0249 9.18186 9.87266 9.09639 9.7482 8.93838C9.6458 8.80838 9.59133 8.66682 9.58478 8.5137C9.57894 8.36002 9.61586 8.20815 9.69553 8.05811C9.77464 7.90736 9.8914 7.77116 10.0458 7.64953C10.2024 7.52621 10.3611 7.44545 10.5219 7.40725C10.6828 7.36778 10.8349 7.36957 10.9782 7.41264C11.121 7.45498 11.2424 7.53744 11.3424 7.65999L10.9578 7.96294Z" fill="white"/>
<path d="M22.256 19.1597C22.1865 19.2625 22.0978 19.3366 21.9901 19.3821C21.8823 19.4276 21.7622 19.4399 21.6298 19.419C21.4974 19.3981 21.3593 19.3391 21.2156 19.2419C21.0702 19.1435 20.9637 19.0367 20.896 18.9214C20.8281 18.8051 20.7963 18.6888 20.8005 18.5724C20.8042 18.4556 20.84 18.347 20.908 18.2465C20.9599 18.1698 21.0156 18.1156 21.0751 18.0839C21.1341 18.0517 21.1916 18.0335 21.2475 18.0291C21.3029 18.0244 21.3519 18.0248 21.3944 18.0304L21.4031 18.0176L20.7505 17.5762L20.9597 17.2669L22.7045 18.4472L22.4993 18.7505L22.2931 18.611L22.2804 18.6298C22.3015 18.6672 22.3197 18.7131 22.3351 18.7674C22.35 18.8213 22.3532 18.8814 22.3448 18.9477C22.3363 19.014 22.3067 19.0847 22.256 19.1597ZM22.0612 18.9024C22.1054 18.8371 22.1254 18.7696 22.1214 18.6997C22.1167 18.6295 22.0906 18.561 22.0432 18.4941C21.9957 18.4272 21.9296 18.3651 21.845 18.3079C21.7604 18.2506 21.6788 18.2128 21.6002 18.1944C21.5219 18.1754 21.4499 18.1772 21.3842 18.1998C21.3188 18.2218 21.2636 18.266 21.2187 18.3325C21.1722 18.4012 21.1513 18.4706 21.1559 18.5409C21.1606 18.6111 21.1865 18.6791 21.2338 18.7451C21.2811 18.811 21.3454 18.8714 21.4266 18.9264C21.5084 18.9817 21.5892 19.0194 21.6692 19.0396C21.7489 19.0588 21.8228 19.0578 21.8908 19.0368C21.9587 19.0148 22.0155 18.97 22.0612 18.9024Z" fill="white"/>
<path d="M21.0725 20.5951C20.9565 20.703 20.8339 20.772 20.7047 20.8023C20.5756 20.8315 20.4471 20.8227 20.3192 20.7758C20.1909 20.7285 20.0705 20.6443 19.958 20.5233C19.8473 20.4042 19.7728 20.2788 19.7344 20.1469C19.6961 20.014 19.6945 19.8844 19.7297 19.758C19.7644 19.6312 19.837 19.5165 19.9475 19.4137C20.0188 19.3474 20.0968 19.2964 20.1815 19.2607C20.2663 19.224 20.3553 19.2068 20.4483 19.2093C20.5419 19.2112 20.6371 19.236 20.7338 19.2837C20.8301 19.3309 20.9254 19.4052 21.0197 19.5066L21.0975 19.5902L20.1491 20.472L19.9782 20.2882L20.6652 19.6495C20.6161 19.5977 20.5616 19.5618 20.5017 19.5416C20.4413 19.521 20.3803 19.5173 20.3187 19.5306C20.2576 19.5434 20.2009 19.5741 20.1487 19.6227C20.093 19.6745 20.0566 19.7336 20.0396 19.7999C20.0222 19.8657 20.022 19.9315 20.039 19.9971C20.0561 20.0618 20.0884 20.1202 20.136 20.1724L20.2852 20.3328C20.3477 20.4001 20.4137 20.4464 20.4831 20.4718C20.5521 20.4966 20.6206 20.5013 20.6886 20.4858C20.7561 20.4698 20.8195 20.4343 20.8788 20.3792C20.9185 20.3423 20.9492 20.3034 20.9711 20.2625C20.9925 20.221 21.0047 20.1783 21.0078 20.1343C21.0109 20.0902 21.0032 20.0463 20.9849 20.0024L21.2662 19.7943C21.3127 19.8766 21.3367 19.9638 21.3381 20.0561C21.3397 20.1473 21.3184 20.2392 21.2743 20.3317C21.2297 20.4238 21.1624 20.5116 21.0725 20.5951Z" fill="white"/>
<path d="M19.2876 21.9203L18.4453 20.5836L18.7508 20.3912L18.8911 20.614L18.9051 20.6052C18.8808 20.5127 18.8851 20.4269 18.918 20.3478C18.951 20.2678 19.0058 20.2037 19.0824 20.1554C19.0998 20.1445 19.1198 20.1331 19.1424 20.1213C19.1651 20.1086 19.1847 20.0991 19.201 20.0929L19.3836 20.3826C19.3674 20.3864 19.3436 20.3957 19.3124 20.4105C19.2814 20.4243 19.2526 20.4397 19.2259 20.4565C19.1685 20.4927 19.1247 20.5377 19.0946 20.5915C19.0647 20.6444 19.0504 20.7008 19.0517 20.7608C19.053 20.8207 19.0716 20.8791 19.1074 20.936L19.6026 21.7218L19.2876 21.9203Z" fill="white"/>
<path d="M18.0287 22.7068C17.8813 22.7649 17.742 22.7845 17.6107 22.7655C17.4797 22.7456 17.3633 22.6905 17.2614 22.6002C17.1592 22.5093 17.0778 22.387 17.0172 22.2333C16.9576 22.0821 16.934 21.9381 16.9464 21.8012C16.9592 21.6635 17.005 21.5423 17.0838 21.4375C17.1624 21.3321 17.2718 21.2517 17.4122 21.1964C17.5028 21.1607 17.594 21.1416 17.686 21.1393C17.7783 21.136 17.8674 21.1525 17.9531 21.1887C18.0395 21.2247 18.1191 21.2825 18.1918 21.3622C18.2642 21.4413 18.3258 21.5452 18.3766 21.6741L18.4185 21.7803L17.2138 22.2552L17.1218 22.0218L17.9944 21.6777C17.9676 21.6116 17.93 21.5583 17.8816 21.5177C17.8329 21.4764 17.7774 21.4507 17.7152 21.4406C17.6536 21.4303 17.5897 21.4382 17.5233 21.4643C17.4525 21.4922 17.3971 21.534 17.3571 21.5896C17.3169 21.6445 17.2927 21.7056 17.2846 21.7729C17.2769 21.8394 17.2856 21.9056 17.3109 21.9715L17.3913 22.1753C17.425 22.2608 17.4695 22.328 17.5249 22.3769C17.5801 22.4252 17.6421 22.4546 17.7111 22.465C17.7798 22.4747 17.8518 22.4648 17.9271 22.4351C17.9775 22.4152 18.0203 22.3902 18.0556 22.3601C18.0906 22.3293 18.1176 22.294 18.1365 22.2541C18.1555 22.2142 18.1644 22.1705 18.1634 22.123L18.5011 22.0319C18.5144 22.1254 18.5049 22.2154 18.4727 22.3018C18.4408 22.3873 18.3874 22.4651 18.3126 22.5352C18.2375 22.6046 18.1429 22.6618 18.0287 22.7068Z" fill="white"/>
<path d="M16.2932 21.5534L16.351 21.8355L15.4612 22.0178L15.4034 21.7357L16.2932 21.5534ZM15.5471 21.3199L15.9119 21.2451L16.2096 22.6981C16.2196 22.7472 16.2347 22.7833 16.2549 22.8064C16.2755 22.8288 16.2993 22.8421 16.326 22.8465C16.3528 22.8508 16.3813 22.8498 16.4116 22.8436C16.4344 22.839 16.4549 22.833 16.473 22.8258C16.4918 22.8184 16.506 22.8124 16.5155 22.8076L16.6354 23.0802C16.6173 23.0909 16.5909 23.104 16.5563 23.1195C16.5223 23.1349 16.4796 23.1485 16.4282 23.1605C16.3374 23.1819 16.2523 23.1849 16.1728 23.1697C16.0933 23.1538 16.0254 23.118 15.9692 23.0623C15.9137 23.0065 15.8763 22.9302 15.8572 22.8333L15.5471 21.3199Z" fill="white"/>
<path d="M15.1943 22.4417L14.8567 22.4929C14.8457 22.459 14.8275 22.4275 14.8023 22.3984C14.7777 22.3692 14.7452 22.3462 14.7047 22.3294C14.6642 22.3125 14.6151 22.3053 14.5576 22.3077C14.4802 22.311 14.4158 22.3305 14.3645 22.3663C14.3138 22.402 14.2899 22.4466 14.2928 22.5C14.2941 22.5459 14.3124 22.5826 14.3479 22.6099C14.384 22.6372 14.4426 22.6584 14.5235 22.6736L14.7951 22.7199C14.9458 22.7458 15.059 22.7922 15.1345 22.8591C15.2107 22.9259 15.2516 23.0158 15.257 23.1288C15.2605 23.2282 15.235 23.3171 15.1806 23.3955C15.1269 23.4733 15.0503 23.5355 14.9506 23.5822C14.851 23.629 14.7355 23.6551 14.6039 23.6606C14.4107 23.6687 14.2535 23.6347 14.1323 23.5588C14.011 23.4822 13.9361 23.3718 13.9074 23.2275L14.2687 23.1774C14.2881 23.2479 14.3253 23.3002 14.3802 23.3343C14.4352 23.3684 14.5055 23.3836 14.5911 23.3801C14.6795 23.3764 14.7497 23.3552 14.8016 23.3167C14.8542 23.2781 14.8794 23.2321 14.8771 23.1787C14.8753 23.1335 14.8562 23.0968 14.82 23.0689C14.7846 23.0408 14.7302 23.0205 14.6569 23.0077L14.3853 22.9625C14.2326 22.9373 14.1183 22.8889 14.0426 22.8173C13.9668 22.7449 13.9268 22.6512 13.9227 22.5361C13.918 22.4388 13.9408 22.3534 13.9913 22.28C14.0424 22.2058 14.1151 22.1471 14.2094 22.1041C14.3043 22.0603 14.4148 22.0358 14.5409 22.0305C14.7258 22.0227 14.8731 22.056 14.9826 22.1304C15.0927 22.2047 15.1633 22.3085 15.1943 22.4417Z" fill="white"/>
<path d="M12.7173 23.5524L12.904 21.9836L13.2737 22.0276L13.087 23.5964L12.7173 23.5524ZM13.1164 21.783C13.0578 21.7761 13.0097 21.7507 12.9721 21.7068C12.9346 21.6623 12.9191 21.6125 12.9257 21.5573C12.9324 21.5015 12.9591 21.4567 13.0059 21.4229C13.0528 21.3884 13.1056 21.3747 13.1641 21.3816C13.2234 21.3887 13.2714 21.4144 13.3083 21.4589C13.3458 21.5027 13.3613 21.5525 13.3547 21.6084C13.3481 21.6635 13.3214 21.7083 13.2745 21.7428C13.2283 21.7767 13.1756 21.7901 13.1164 21.783Z" fill="white"/>
<path d="M10.995 23.6238C10.8675 23.5836 10.7634 23.5317 10.6828 23.4682C10.602 23.4053 10.5428 23.3363 10.5054 23.2613C10.4679 23.1862 10.4495 23.1102 10.4499 23.0335L10.7942 23.0568C10.7993 23.0908 10.811 23.1265 10.8294 23.1639C10.8476 23.202 10.8769 23.2379 10.9174 23.2715C10.9583 23.3059 11.0144 23.3344 11.0856 23.3569C11.1864 23.3886 11.2775 23.3904 11.359 23.3622C11.4403 23.3346 11.4985 23.2652 11.5335 23.1541L11.6236 22.8686L11.6059 22.8631C11.576 22.8939 11.5374 22.923 11.4899 22.9505C11.4431 22.9782 11.3867 22.996 11.3209 23.004C11.2558 23.0122 11.1801 23.0027 11.0937 22.9755C10.978 22.939 10.8816 22.8788 10.8045 22.7948C10.7283 22.7104 10.6796 22.6051 10.6582 22.479C10.6377 22.3525 10.6534 22.2071 10.7051 22.043C10.7573 21.8775 10.8288 21.7466 10.9196 21.6501C11.0113 21.5532 11.1135 21.4902 11.2262 21.461C11.3391 21.4312 11.4535 21.4345 11.5692 21.471C11.6575 21.4989 11.7254 21.5368 11.7728 21.5848C11.821 21.6324 11.8556 21.6825 11.8764 21.7351C11.8974 21.787 11.911 21.834 11.9171 21.8762L11.9367 21.8824L12.0153 21.6332L12.3655 21.7437L11.8826 23.2749C11.842 23.4038 11.7776 23.5007 11.6896 23.5656C11.6015 23.6306 11.4975 23.6672 11.3778 23.6755C11.258 23.6837 11.1304 23.6665 10.995 23.6238ZM11.2807 22.7281C11.3559 22.7519 11.4257 22.7538 11.4903 22.7338C11.5548 22.7139 11.6116 22.674 11.6607 22.614C11.7098 22.5539 11.7496 22.4759 11.7799 22.3797C11.8098 22.2849 11.8222 22.1975 11.8172 22.1176C11.8129 22.0379 11.7904 21.97 11.7498 21.9141C11.7101 21.8577 11.652 21.8174 11.5755 21.7933C11.4963 21.7684 11.4238 21.7681 11.3578 21.7926C11.2919 21.8171 11.2341 21.8611 11.1846 21.9246C11.1353 21.9874 11.0964 22.0643 11.0677 22.1552C11.0386 22.2474 11.0266 22.3324 11.0315 22.4102C11.0373 22.4875 11.0606 22.5538 11.1014 22.6091C11.1431 22.6639 11.2029 22.7036 11.2807 22.7281Z" fill="white"/>
<path d="M9.12472 22.0556C8.98826 21.9752 8.88711 21.8774 8.82128 21.7622C8.75639 21.6468 8.72816 21.5211 8.73661 21.3852C8.7454 21.2487 8.79175 21.1093 8.87565 20.9669C8.95815 20.8269 9.05714 20.7197 9.17262 20.6453C9.28904 20.5706 9.41281 20.5321 9.54391 20.5298C9.67537 20.5268 9.80608 20.5637 9.93605 20.6403C10.0199 20.6897 10.0911 20.7499 10.1495 20.821C10.2089 20.8918 10.2507 20.9721 10.2749 21.062C10.2997 21.1522 10.3031 21.2505 10.285 21.3569C10.2673 21.4626 10.2232 21.5751 10.1529 21.6945L10.095 21.7928L8.9793 21.1354L9.10671 20.9192L9.91488 21.3954C9.95049 21.3336 9.9694 21.2712 9.9716 21.208C9.97415 21.1442 9.96028 21.0847 9.92997 21.0295C9.90025 20.9745 9.85467 20.929 9.79323 20.8928C9.72765 20.8541 9.66065 20.8361 9.59223 20.8388C9.52416 20.8409 9.46109 20.8594 9.40304 20.8945C9.34593 20.9292 9.29915 20.9769 9.2627 21.0374L9.15148 21.2261C9.10483 21.3053 9.07927 21.3818 9.0748 21.4555C9.07068 21.5287 9.08573 21.5957 9.11997 21.6565C9.15455 21.7166 9.2067 21.7673 9.27641 21.8083C9.32308 21.8358 9.36915 21.8542 9.41461 21.8635C9.46043 21.8722 9.50488 21.8717 9.54796 21.8621C9.59105 21.8525 9.63099 21.8326 9.6678 21.8026L9.94747 22.0128C9.88192 22.0808 9.80516 22.1287 9.71718 22.1564C9.63013 22.1839 9.53598 22.1897 9.43472 22.1738C9.3338 22.1573 9.23047 22.1179 9.12472 22.0556Z" fill="white"/>
<path d="M6.98151 19.8772L8.49257 18.4095L9.04294 18.9762C9.15568 19.0922 9.23011 19.2092 9.26622 19.3271C9.3028 19.4455 9.30428 19.5602 9.27065 19.6712C9.238 19.7823 9.17347 19.8846 9.07706 19.9783C8.98016 20.0724 8.87598 20.1334 8.76453 20.1614C8.65404 20.1893 8.54067 20.1823 8.42442 20.1404C8.30866 20.098 8.1944 20.0187 8.08166 19.9026L7.68967 19.4991L7.91692 19.2783L8.27308 19.645C8.339 19.7129 8.40234 19.7594 8.46307 19.7846C8.52429 19.8092 8.58314 19.8142 8.6396 19.7995C8.69704 19.7848 8.75256 19.7514 8.80618 19.6994C8.85979 19.6473 8.89527 19.5923 8.9126 19.5343C8.93042 19.4759 8.92815 19.4155 8.90578 19.3531C8.88391 19.2903 8.83977 19.2246 8.77336 19.1563L8.52971 18.9054L7.24737 20.1509L6.98151 19.8772ZM8.42439 19.9927L8.10302 21.0318L7.80634 20.7264L8.13416 19.6939L8.42439 19.9927Z" fill="white"/>
<g clip-path="url(#clip2_18058_24969)">
<path d="M7.60622 11.75C7.5415 11.6188 7.3544 11.6188 7.28968 11.75L6.98138 12.3747L6.29195 12.4748C6.14722 12.4957 6.08929 12.6738 6.19415 12.7759L6.69295 13.2622L6.57528 13.9486C6.55044 14.0929 6.70184 14.2029 6.83128 14.1348L7.44789 13.8105L8.06449 14.1348C8.19393 14.2028 8.34533 14.0929 8.32062 13.9487L8.20295 13.2622L8.70175 12.7758C8.80634 12.6738 8.74869 12.4959 8.60382 12.4748L7.91465 12.3747L7.60609 11.75H7.60622ZM6.03111 11.8387C6.01489 11.8591 6.0074 11.885 6.01029 11.9108C6.01318 11.9367 6.02622 11.9603 6.04654 11.9765L6.37341 12.238C6.38343 12.2464 6.39501 12.2526 6.40747 12.2564C6.41994 12.2602 6.43304 12.2615 6.446 12.2602C6.45897 12.2589 6.47154 12.255 6.48299 12.2488C6.49443 12.2425 6.50452 12.2341 6.51266 12.2239C6.52081 12.2137 6.52684 12.202 6.53041 12.1895C6.53398 12.177 6.53501 12.1638 6.53345 12.1509C6.53189 12.138 6.52777 12.1255 6.52133 12.1141C6.51488 12.1028 6.50624 12.0929 6.49592 12.0849L6.16905 11.8234C6.15899 11.8154 6.14744 11.8094 6.13507 11.8058C6.12269 11.8022 6.10972 11.8011 6.09691 11.8025C6.0841 11.8039 6.07169 11.8078 6.0604 11.8141C6.04911 11.8203 6.03916 11.8287 6.03111 11.8387ZM8.86466 13.7263C8.8809 13.706 8.88841 13.6801 8.88554 13.6543C8.88267 13.6284 8.86966 13.6048 8.84936 13.5885L8.52249 13.327C8.50219 13.3108 8.47626 13.3032 8.4504 13.3061C8.42455 13.309 8.40088 13.322 8.38462 13.3423C8.36836 13.3626 8.36083 13.3885 8.36368 13.4144C8.36654 13.4402 8.37955 13.4639 8.39985 13.4801L8.72672 13.7416C8.73678 13.7497 8.74833 13.7557 8.7607 13.7593C8.77308 13.7629 8.78605 13.764 8.79886 13.7626C8.81167 13.7612 8.82408 13.7572 8.83537 13.751C8.84666 13.7448 8.85661 13.7364 8.86466 13.7263ZM6.04654 13.5885C6.03621 13.5965 6.02758 13.6064 6.02113 13.6177C6.01469 13.6291 6.01056 13.6416 6.00901 13.6545C6.00745 13.6674 6.00848 13.6806 6.01205 13.6931C6.01562 13.7056 6.02165 13.7173 6.0298 13.7275C6.03794 13.7377 6.04803 13.7461 6.05947 13.7524C6.07092 13.7586 6.08349 13.7625 6.09646 13.7638C6.10942 13.7651 6.12252 13.7638 6.13498 13.76C6.14745 13.7562 6.15903 13.75 6.16905 13.7416L6.49592 13.4801C6.51567 13.4637 6.52819 13.4402 6.53079 13.4146C6.53338 13.3891 6.52584 13.3635 6.50979 13.3435C6.49374 13.3234 6.47046 13.3105 6.44496 13.3074C6.41945 13.3043 6.39376 13.3114 6.37341 13.327L6.04654 13.5885ZM8.86466 11.8386C8.8809 11.8589 8.88841 11.8848 8.88554 11.9107C8.88267 11.9365 8.86966 11.9602 8.84936 11.9764L8.52249 12.2379C8.51244 12.246 8.5009 12.252 8.48853 12.2556C8.47616 12.2591 8.4632 12.2603 8.4504 12.2589C8.4376 12.2574 8.4252 12.2535 8.41391 12.2473C8.40263 12.2411 8.39267 12.2327 8.38462 12.2227C8.37657 12.2126 8.37057 12.2011 8.36698 12.1887C8.36339 12.1763 8.36227 12.1634 8.36368 12.1506C8.3651 12.1378 8.36902 12.1254 8.37523 12.1141C8.38143 12.1028 8.3898 12.0929 8.39985 12.0848L8.72672 11.8233C8.73678 11.8153 8.74833 11.8093 8.7607 11.8057C8.77308 11.8021 8.78605 11.8009 8.79886 11.8024C8.81167 11.8038 8.82408 11.8077 8.83537 11.8139C8.84666 11.8202 8.85661 11.8285 8.86466 11.8386Z" fill="white"/>
</g>
<g clip-path="url(#clip3_18058_24969)">
<path d="M21.8425 11.75C21.7778 11.6188 21.5907 11.6188 21.526 11.75L21.2177 12.3747L20.5283 12.4748C20.3835 12.4957 20.3256 12.6738 20.4305 12.7759L20.9293 13.2622L20.8116 13.9486C20.7868 14.0929 20.9382 14.2029 21.0676 14.1348L21.6842 13.8105L22.3008 14.1348C22.4303 14.2028 22.5817 14.0929 22.5569 13.9487L22.4393 13.2622L22.9381 12.7758C23.0427 12.6738 22.985 12.4959 22.8401 12.4748L22.151 12.3747L21.8424 11.75H21.8425ZM20.2674 11.8387C20.2512 11.8591 20.2437 11.885 20.2466 11.9108C20.2495 11.9367 20.2626 11.9603 20.2829 11.9765L20.6097 12.238C20.6198 12.2464 20.6313 12.2526 20.6438 12.2564C20.6563 12.2602 20.6694 12.2615 20.6823 12.2602C20.6953 12.2589 20.7079 12.255 20.7193 12.2488C20.7308 12.2425 20.7408 12.2341 20.749 12.2239C20.7571 12.2137 20.7632 12.202 20.7667 12.1895C20.7703 12.177 20.7713 12.1638 20.7698 12.1509C20.7682 12.138 20.7641 12.1255 20.7577 12.1141C20.7512 12.1028 20.7426 12.0929 20.7322 12.0849L20.4054 11.8234C20.3953 11.8154 20.3838 11.8094 20.3714 11.8058C20.359 11.8022 20.346 11.8011 20.3332 11.8025C20.3204 11.8039 20.308 11.8078 20.2967 11.8141C20.2854 11.8203 20.2755 11.8287 20.2674 11.8387ZM23.101 13.7263C23.1172 13.706 23.1247 13.6801 23.1219 13.6543C23.119 13.6284 23.106 13.6048 23.0857 13.5885L22.7588 13.327C22.7385 13.3108 22.7126 13.3032 22.6867 13.3061C22.6609 13.309 22.6372 13.322 22.6209 13.3423C22.6047 13.3626 22.5972 13.3885 22.6 13.4144C22.6029 13.4402 22.6159 13.4639 22.6362 13.4801L22.963 13.7416C22.9731 13.7497 22.9847 13.7557 22.997 13.7593C23.0094 13.7629 23.0224 13.764 23.0352 13.7626C23.048 13.7612 23.0604 13.7572 23.0717 13.751C23.083 13.7448 23.0929 13.7364 23.101 13.7263ZM20.2829 13.5885C20.2725 13.5965 20.2639 13.6064 20.2575 13.6177C20.251 13.6291 20.2469 13.6416 20.2453 13.6545C20.2438 13.6674 20.2448 13.6806 20.2484 13.6931C20.2519 13.7056 20.258 13.7173 20.2661 13.7275C20.2743 13.7377 20.2844 13.7461 20.2958 13.7524C20.3072 13.7586 20.3198 13.7625 20.3328 13.7638C20.3457 13.7651 20.3588 13.7638 20.3713 13.76C20.3838 13.7562 20.3954 13.75 20.4054 13.7416L20.7322 13.4801C20.752 13.4637 20.7645 13.4402 20.7671 13.4146C20.7697 13.3891 20.7622 13.3635 20.7461 13.3435C20.7301 13.3234 20.7068 13.3105 20.6813 13.3074C20.6558 13.3043 20.6301 13.3114 20.6097 13.327L20.2829 13.5885ZM23.101 11.8386C23.1172 11.8589 23.1247 11.8848 23.1219 11.9107C23.119 11.9365 23.106 11.9602 23.0857 11.9764L22.7588 12.2379C22.7488 12.246 22.7372 12.252 22.7249 12.2556C22.7125 12.2591 22.6995 12.2603 22.6867 12.2589C22.6739 12.2574 22.6615 12.2535 22.6502 12.2473C22.639 12.2411 22.629 12.2327 22.6209 12.2227C22.6129 12.2126 22.6069 12.2011 22.6033 12.1887C22.5997 12.1763 22.5986 12.1634 22.6 12.1506C22.6014 12.1378 22.6053 12.1254 22.6116 12.1141C22.6178 12.1028 22.6261 12.0929 22.6362 12.0848L22.963 11.8233C22.9731 11.8153 22.9847 11.8093 22.997 11.8057C23.0094 11.8021 23.0224 11.8009 23.0352 11.8024C23.048 11.8038 23.0604 11.8077 23.0717 11.8139C23.083 11.8202 23.0929 11.8285 23.101 11.8386Z" fill="white"/>
</g>
</g>
<defs>
<clipPath id="clip0_18058_24969">
<rect width="29.9297" height="29.9297" fill="white"/>
</clipPath>
<clipPath id="clip1_18058_24969">
<rect width="5.31033" height="5.31033" fill="white" transform="translate(11.9126 12.3064)"/>
</clipPath>
<clipPath id="clip2_18058_24969">
<rect width="3.13792" height="3.13792" fill="white" transform="translate(5.87354 11.3445)"/>
</clipPath>
<clipPath id="clip3_18058_24969">
<rect width="3.13792" height="3.13792" fill="white" transform="translate(20.1152 11.3445)"/>
</clipPath>
</defs>
</svg>
