<svg width="48" height="46" viewBox="0 0 48 46" fill="none" xmlns="http://www.w3.org/2000/svg">
<path fill-rule="evenodd" clip-rule="evenodd" d="M5.89102 41.5632H12.1137L16.4344 32.8262L1.31671 2.63139L0 0H2.92601H13.3426H14.4398L14.947 0.994734L20.4186 11.7408L17.005 18.7627L16.3954 11.8437L12.2453 3.63103H5.85201L18.4387 28.7738L32.1568 1.01433L32.6542 0H33.771H43.9974H46.8844L45.6164 2.60689L37.6772 18.9146L35.6485 14.8573L41.1104 3.63103H34.8877L30.6889 12.1181L45.8164 42.3228L47.1331 44.9541H44.2071H33.7856H32.6884L32.1861 43.9594L26.7388 33.1839L30.1232 26.1816L30.8011 33.228L34.8829 41.3231H41.2811L28.6895 16.1755L14.8446 44.1799L14.3472 45.1943H13.2304H3.00403H0.117035L1.38497 42.5874L9.3242 26.2796L11.3529 30.3369L5.89102 41.5632Z" fill="#2F6EFF"/>
</svg>
